Coordinates
version=1
nRows=8
nColumns=40
inDegrees=yes

Units are S.I. units (second, meters, Newtons, ...)
If the header above contains a line with 'inDegrees', this indicates whether rotational values are in degrees (yes) or radians (no).

endheader
time	pelvis_tilt	pelvis_list	pelvis_rotation	pelvis_tx	pelvis_ty	pelvis_tz	hip_flexion_r	hip_adduction_r	hip_rotation_r	knee_angle_r	knee_angle_r_beta	ankle_angle_r	subtalar_angle_r	mtp_angle_r	hip_flexion_l	hip_adduction_l	hip_rotation_l	knee_angle_l	knee_angle_l_beta	ankle_angle_l	subtalar_angle_l	mtp_angle_l	lumbar_extension	lumbar_bending	lumbar_rotation	arm_flex_r	arm_add_r	arm_rot_r	elbow_flex_r	pro_sup_r	wrist_flex_r	wrist_dev_r	arm_flex_l	arm_add_l	arm_rot_l	elbow_flex_l	pro_sup_l	wrist_flex_l	wrist_dev_l
     11.80000000	     23.92276511	      4.99108390	      5.57164343	      0.02463410	      1.33251558	     -0.00636234	      7.18900395	    -10.25492374	    -13.11770221	     30.42449499	      0.53100761	    -19.82929235	    -22.42495088	      0.00000000	     41.47429518	      7.65532818	      9.03571724	    103.91399198	      1.81364130	    -24.59455981	    -29.66371000	      0.00000000	    -75.67682978	      6.00068224	     -0.37530600	     39.52014817	    -14.13168731	    -19.25617067	     48.25435887	     48.44920756	      0.00000000	      0.00000000	     52.95016253	     11.66149076	    -24.49099034	     43.57015054	     51.72343465	      0.00000000	      0.00000000
     11.81700000	     23.84951919	      5.13868746	      5.32242755	      0.02419722	      1.33206538	     -0.00582293	      5.74256791	    -10.07312516	    -13.46701779	     30.22966224	      0.52760714	    -20.11059588	    -22.06179141	      0.00000000	     43.64706457	      8.17835209	      8.59810774	    104.44047156	      1.82283010	    -24.25500695	    -29.52277472	      0.00000000	    -75.64036512	      5.58457291	     -0.46991693	     39.29407484	    -14.36399838	    -19.16812795	     48.37481739	     48.38803547	      0.00000000	      0.00000000	     52.77741148	     11.91154577	    -24.47057622	     43.80831537	     51.72937449	      0.00000000	      0.00000000
     11.83300000	     23.90067638	      5.10634717	      5.34324485	      0.02379034	      1.33196073	     -0.00570450	      4.60338806	     -9.94109759	    -14.29392006	     31.10310524	      0.54285159	    -19.96790015	    -21.54218497	      0.00000000	     45.39894059	      8.75302686	      8.47160718	    104.35552097	      1.82134743	    -23.87736988	    -29.24773295	      0.00000000	    -75.76268621	      5.56985077	     -0.46551071	     38.99209644	    -14.68151191	    -18.85403891	     48.80462642	     48.11676120	      0.00000000	      0.00000000	     52.49365524	     12.19844605	    -24.58559276	     44.27914456	     51.79033264	      0.00000000	      0.00000000
     11.85000000	     24.05080239	      4.96292801	      5.17502296	      0.02346104	      1.33231132	     -0.00531476	      3.94992896	     -9.73755064	    -14.76293184	     32.82377870	      0.57288301	    -19.58585120	    -21.41897217	      0.00000000	     46.51307377	      8.94423447	      8.23011902	    103.43681190	      1.80531294	    -23.64938730	    -29.08034115	      0.00000000	    -76.01813780	      5.45194960	     -0.30045100	     38.89952039	    -14.91295771	    -18.67078573	     49.00101353	     47.89926187	      0.00000000	      0.00000000	     52.35338721	     12.43368159	    -24.65539352	     44.58436624	     51.82552270	      0.00000000	      0.00000000
     11.86700000	     24.21882725	      4.77874445	      4.94941810	      0.02325281	      1.33293019	     -0.00494198	      3.98838409	     -9.60532983	    -14.91106367	     35.60131684	      0.62136020	    -19.23722449	    -21.49886131	      0.00000000	     47.01938573	      8.91736592	      7.98078298	    101.67837251	      1.77462238	    -23.25439175	    -28.98243045	      0.00000000	    -76.33104043	      5.33436134	     -0.10136516	     38.94476425	    -15.07429965	    -18.51065933	     49.16754932	     47.58142664	      0.00000000	      0.00000000	     52.29176358	     12.61413259	    -24.71542612	     44.81786622	     51.84679394	      0.00000000	      0.00000000
     11.88300000	     24.46286572	      4.50454338	      4.70001606	      0.02314720	      1.33389250	     -0.00462730	      4.50639396	     -9.48165838	    -14.91645620	     39.23571285	      0.68479237	    -19.00070563	    -21.87245273	      0.00000000	     46.89197029	      8.66282020	      7.72002163	     99.12115625	      1.72999053	    -23.09658238	    -29.11850010	      0.00000000	    -76.75603745	      5.26738843	      0.20587679	     39.08468085	    -15.21501608	    -18.38383651	     49.27772953	     47.35316560	      0.00000000	      0.00000000	     52.28949974	     12.77428682	    -24.77119159	     45.02585966	     51.89002385	      0.00000000	      0.00000000
     11.90000000	     24.62725036	      4.12835601	      4.49748753	      0.02311762	      1.33485860	     -0.00442420	      5.47774676	     -9.38283009	    -14.92093285	     43.33045051	      0.75625903	    -18.68655520	    -22.18269435	      0.00000000	     46.26165154	      8.18567951	      7.48329076	     95.99506401	      1.67542993	    -22.85897392	    -29.42584997	      0.00000000	    -77.10807512	      5.25395352	      0.59106061	     39.27370385	    -15.31067373	    -18.29039302	     49.34607733	     47.11611337	      0.00000000	      0.00000000	     52.37014818	     12.88581294	    -24.84920735	     45.15580242	     51.94400798	      0.00000000	      0.00000000
     11.91700000	     24.75080951	      3.57248136	      4.51453861	      0.02329485	      1.33587849	     -0.00464740	      6.76282135	     -9.25596637	    -15.17673081	     47.77042035	      0.83375112	    -18.32355911	    -22.37506715	      0.00000000	     45.01635169	      7.49107527	      7.33623443	     92.18373179	      1.60890964	    -22.66512524	    -29.97160910	      0.00000000	    -77.43224413	      5.46081614	      1.10913056	     39.50636943	    -15.38345350	    -18.21685510	     49.35896193	     46.90236637	      0.00000000	      0.00000000	     52.54702198	     12.98269912	    -24.94862535	     45.22297492	     52.01321395	      0.00000000	      0.00000000
